<svg xmlns="http://www.w3.org/2000/svg" xmlns:xlink="http://www.w3.org/1999/xlink" width="100" zoomAndPan="magnify" viewBox="0 0 75 74.999997" height="100" preserveAspectRatio="xMidYMid meet" version="1.0"><defs><clipPath id="927f0061c4"><path d="M 48 12.65625 L 68 12.65625 L 68 26 L 48 26 Z M 48 12.65625 " clip-rule="nonzero"/></clipPath><clipPath id="ae54aeea87"><path d="M 45 48 L 75 48 L 75 65.90625 L 45 65.90625 Z M 45 48 " clip-rule="nonzero"/></clipPath></defs><g clip-path="url(#927f0061c4)"><path fill="#a8d6da" d="M 63.535156 17.71875 L 61.3125 17.71875 L 61.3125 16.453125 C 61.3125 14.351562 59.605469 12.648438 57.503906 12.648438 C 55.398438 12.648438 53.691406 14.351562 53.691406 16.453125 L 53.691406 17.71875 L 52.421875 17.71875 C 50.316406 17.71875 48.613281 19.421875 48.613281 21.523438 C 48.613281 23.625 50.316406 25.328125 52.421875 25.328125 L 63.535156 25.328125 C 65.636719 25.328125 67.34375 23.625 67.34375 21.523438 C 67.34375 19.421875 65.636719 17.71875 63.535156 17.71875 Z M 63.535156 17.71875 " fill-opacity="1" fill-rule="nonzero"/></g><path fill="#ea6b65" d="M 22.894531 49.414062 L 29.246094 38.003906 L 52.105469 38.003906 L 58.453125 60.824219 L 68.234375 62.238281 C 73.9375 44.945312 64.519531 26.316406 47.195312 20.621094 C 29.875 14.929688 11.210938 24.332031 5.507812 41.621094 C 4.613281 44.339844 4.074219 47.160156 3.90625 50.015625 Z M 22.894531 49.414062 " fill-opacity="1" fill-rule="nonzero"/><path fill="#fbb540" d="M 22.894531 49.414062 L 22.894531 38.003906 L 39.40625 35.46875 L 49.566406 40.539062 L 62.847656 62.199219 C 68.527344 47.878906 61.5 31.671875 47.15625 26 C 32.808594 20.332031 16.574219 27.347656 10.890625 41.667969 C 9.855469 44.285156 9.21875 47.046875 9.007812 49.855469 Z M 22.894531 49.414062 " fill-opacity="1" fill-rule="nonzero"/><path fill="#99d8aa" d="M 22.894531 49.414062 L 26.707031 41.808594 L 36.867188 36.738281 L 50.835938 43.074219 L 52.105469 60.824219 L 57.285156 62.164062 C 62.945312 50.90625 58.394531 37.203125 47.121094 31.554688 C 35.847656 25.90625 22.121094 30.445312 16.460938 41.703125 C 15.203125 44.199219 14.417969 46.910156 14.140625 49.691406 Z M 22.894531 49.414062 " fill-opacity="1" fill-rule="nonzero"/><path fill="#69b0bb" d="M 53.667969 57.703125 C 56.875 48.4375 51.953125 38.332031 42.671875 35.132812 C 33.394531 31.929688 23.269531 36.84375 20.0625 46.109375 C 19.410156 47.988281 19.082031 49.960938 19.085938 51.949219 C 19.085938 52.375 19.101562 52.800781 19.132812 53.21875 L 24.242188 53.21875 C 23.53125 46.257812 28.609375 40.039062 35.582031 39.328125 C 42.554688 38.621094 48.78125 43.6875 49.492188 50.648438 C 49.707031 52.761719 49.386719 54.894531 48.5625 56.851562 Z M 53.667969 57.703125 " fill-opacity="1" fill-rule="nonzero"/><path fill="#b8eaee" d="M 5.117188 46.878906 L 5.117188 43.710938 C 5.128906 39.15625 8.835938 35.480469 13.398438 35.496094 C 17.210938 35.507812 20.519531 38.125 21.402344 41.832031 C 21.476562 41.832031 21.550781 41.808594 21.625 41.808594 C 24.429688 41.808594 26.707031 44.078125 26.707031 46.878906 C 29.511719 46.878906 31.785156 49.148438 31.785156 51.949219 C 31.785156 54.75 29.511719 57.019531 26.707031 57.019531 L 5.117188 57.019531 C 2.3125 57.019531 0.0351562 54.75 0.0351562 51.949219 C 0.0351562 49.148438 2.3125 46.878906 5.117188 46.878906 Z M 5.117188 46.878906 " fill-opacity="1" fill-rule="nonzero"/><g clip-path="url(#ae54aeea87)"><path fill="#c0f5f9" d="M 69.882812 55.753906 L 66.074219 55.753906 L 66.074219 53.851562 C 66.074219 50.699219 63.515625 48.148438 60.359375 48.148438 C 57.203125 48.148438 54.644531 50.699219 54.644531 53.851562 L 54.644531 55.753906 L 50.835938 55.753906 C 48.03125 55.753906 45.753906 58.023438 45.753906 60.824219 C 45.753906 63.625 48.03125 65.894531 50.835938 65.894531 L 69.882812 65.894531 C 72.6875 65.894531 74.964844 63.625 74.964844 60.824219 C 74.964844 58.023438 72.6875 55.753906 69.882812 55.753906 Z M 69.882812 55.753906 " fill-opacity="1" fill-rule="nonzero"/></g></svg>